<?xml version="1.0" encoding="utf-8"?>
<!-- Generator: Adobe Illustrator 18.0.0, SVG Export Plug-In . SVG Version: 6.00 Build 0)  -->
<!DOCTYPE svg PUBLIC "-//W3C//DTD SVG 1.1//EN" "http://www.w3.org/Graphics/SVG/1.1/DTD/svg11.dtd">
<svg version="1.1" id="Layer_1" xmlns="http://www.w3.org/2000/svg" xmlns:xlink="http://www.w3.org/1999/xlink" x="0px" y="0px"
	 viewBox="0 0 1200 1204.8" enable-background="new 0 0 1200 1204.8" xml:space="preserve">
<circle fill="#FFFFFF" cx="598.2" cy="598" r="583"/>
<path fill="#FFFFFF" d="M600,599.4"/>
<path d="M600,599.4"/>
<path d="M600,599.4"/>
<polygon points="612.2,596.2 638.4,581.2 965.7,805.6 "/>
<polygon points="593.4,584.2 569.1,570.2 596.2,141.9 "/>
<polygon points="564.1,582.7 455.6,672.5 585.6,595.8 "/>
<path d="M600,14.9c-322.8,0-584.6,261.7-584.6,584.6S277.2,1184,600,1184s584.6-261.7,584.6-584.6S922.8,14.9,600,14.9z
	 M600.1,1152.8c-133.6,0-258.6-44.5-351.7-126.3c-90.6-79.6-161-206-178.4-340.4c41.2,255.6,262.8,450.9,530.1,450.9
	c296.5,0,536.9-240.4,536.9-536.9c0-123-46-243.5-115.6-334c70.5,54.4,131.4,209.4,131.4,334
	C1152.9,905.3,905.4,1152.8,600.1,1152.8z M549.3,557.8l47.3-484.7c1.2,0,2.3,0,3.5,0c0.4,0,0.8,0,1.2,0l4.6,510l81.4-48.6
	L605.3,73.1c288.2,2.9,521,237.4,521,526.3c0,92.8-24.1,180-66.2,255.7L694.8,549.5l-34.6,19.6l397.5,290.4c-1,1.8-2,3.5-3,5.2
	l-447-257.1v90.7l443.9,171.6c-92,153.3-259.8,255.9-451.6,255.9c-191.6,0-359.3-102.4-451.3-255.4l443.6-173v-90.7L144.8,863.8
	c-1-1.7-2-3.4-2.9-5.1l396-289.6l-34.6-19.6L139,853.5c-41.6-75.3-65.3-162-65.3-254.1c0-286.6,229.1-519.8,514.2-526.2l-71.3,464.9
	L549.3,557.8z M600,46.3c-305.3,0-552.8,247.5-552.8,552.8c0,124,45,241.3,113.6,342.6c23.3,43.5,48.5,70.5,82.1,106.1
	C111.2,942.6,26,780.7,26,599.1c0-317,257-574,574-574c317,0,578.9,268.2,569.5,574C1161.5,300.7,900.3,46.3,600,46.3z"/>
</svg>
